<svg width="27" height="26" viewBox="0 0 27 26" fill="none" xmlns="http://www.w3.org/2000/svg">
<path d="M2.7 25.65C1.9575 25.65 1.3221 25.3859 0.7938 24.8576C0.2655 24.3293 0.0009 23.6934 0 22.95V8.1C0 7.3575 0.2646 6.7221 0.7938 6.1938C1.323 5.6655 1.9584 5.4009 2.7 5.4H8.1V2.7C8.1 1.9575 8.3646 1.3221 8.8938 0.7938C9.423 0.2655 10.0584 0.0009 10.8 0H16.2C16.9425 0 17.5784 0.2646 18.1076 0.7938C18.6368 1.323 18.9009 1.9584 18.9 2.7V5.4H24.3C25.0425 5.4 25.6784 5.6646 26.2076 6.1938C26.7368 6.723 27.0009 7.3584 27 8.1V22.95C27 23.6925 26.7359 24.3284 26.2076 24.8576C25.6793 25.3868 25.0434 25.6509 24.3 25.65H2.7ZM10.8 5.4H16.2V2.7H10.8V5.4Z" fill="#F8F8F8"/>
</svg>
